<svg xmlns="http://www.w3.org/2000/svg" viewBox="0 0 1200 630" width="1200" height="630">
  <defs>
    <!-- Black stone gradient -->
    <radialGradient id="blackStone" cx="0.3" cy="0.3" r="0.7">
      <stop offset="0%" style="stop-color:#444444;stop-opacity:1" />
      <stop offset="30%" style="stop-color:#222222;stop-opacity:1" />
      <stop offset="100%" style="stop-color:#000000;stop-opacity:1" />
    </radialGradient>
    
    <!-- White stone gradient -->
    <radialGradient id="whiteStone" cx="0.3" cy="0.3" r="0.7">
      <stop offset="0%" style="stop-color:#ffffff;stop-opacity:1" />
      <stop offset="70%" style="stop-color:#f0f0f0;stop-opacity:1" />
      <stop offset="100%" style="stop-color:#d0d0d0;stop-opacity:1" />
    </radialGradient>
    
    <!-- Grid pattern -->
    <pattern id="gridPattern" x="0" y="0" width="30" height="30" patternUnits="userSpaceOnUse">
      <path d="M 30 0 L 0 0 0 30" fill="none" stroke="#ffffff" stroke-width="1" opacity="0.15"/>
    </pattern>
    
    <!-- Background gradient -->
    <radialGradient id="bgGradient" cx="0.3" cy="0.3" r="1.2">
      <stop offset="0%" style="stop-color:#1a1a1a;stop-opacity:1" />
      <stop offset="100%" style="stop-color:#0a0a0a;stop-opacity:1" />
    </radialGradient>
    
    <!-- Text glow effect -->
    <filter id="glow">
      <feGaussianBlur stdDeviation="3" result="coloredBlur"/>
      <feMerge> 
        <feMergeNode in="coloredBlur"/>
        <feMergeNode in="SourceGraphic"/>
      </feMerge>
    </filter>
  </defs>
  
  <!-- Background -->
  <rect x="0" y="0" width="1200" height="630" fill="url(#bgGradient)"/>
  
  <!-- Grid background pattern -->
  <rect x="0" y="0" width="1200" height="630" fill="url(#gridPattern)" opacity="0.1"/>
  
  <!-- Left side - Game board visualization (perfectly centered) -->
  <g transform="translate(55, 80)">
    <!-- Board background (centered in left half) -->
    <rect x="0" y="0" width="470" height="470" fill="#000000" stroke="#ffffff" stroke-width="3" rx="20"/>
    
    <!-- Grid lines -->
    <g stroke="#ffffff" stroke-width="2" opacity="0.4">
      <!-- Horizontal lines -->
      <line x1="47" y1="47" x2="423" y2="47"/>
      <line x1="47" y1="94" x2="423" y2="94"/>
      <line x1="47" y1="141" x2="423" y2="141"/>
      <line x1="47" y1="188" x2="423" y2="188"/>
      <line x1="47" y1="235" x2="423" y2="235"/>
      <line x1="47" y1="282" x2="423" y2="282"/>
      <line x1="47" y1="329" x2="423" y2="329"/>
      <line x1="47" y1="376" x2="423" y2="376"/>
      <line x1="47" y1="423" x2="423" y2="423"/>
      
      <!-- Vertical lines -->
      <line x1="47" y1="47" x2="47" y2="423"/>
      <line x1="94" y1="47" x2="94" y2="423"/>
      <line x1="141" y1="47" x2="141" y2="423"/>
      <line x1="188" y1="47" x2="188" y2="423"/>
      <line x1="235" y1="47" x2="235" y2="423"/>
      <line x1="282" y1="47" x2="282" y2="423"/>
      <line x1="329" y1="47" x2="329" y2="423"/>
      <line x1="376" y1="47" x2="376" y2="423"/>
      <line x1="423" y1="47" x2="423" y2="423"/>
    </g>
    
    <!-- Star points -->
    <g fill="#ffffff" opacity="0.6">
      <circle cx="141" cy="141" r="4"/>
      <circle cx="141" cy="329" r="4"/>
      <circle cx="329" cy="141" r="4"/>
      <circle cx="329" cy="329" r="4"/>
      <circle cx="235" cy="235" r="4"/>
    </g>
    
    <!-- Game stones -->
    <circle cx="188" cy="188" r="21" fill="url(#blackStone)" stroke="#ffffff" stroke-width="1"/>
    <circle cx="282" cy="235" r="21" fill="url(#whiteStone)" stroke="#333333" stroke-width="1"/>
    <circle cx="235" cy="282" r="21" fill="url(#blackStone)" stroke="#ffffff" stroke-width="1"/>
    <circle cx="329" cy="188" r="21" fill="url(#whiteStone)" stroke="#333333" stroke-width="1"/>
    <circle cx="141" cy="235" r="21" fill="url(#blackStone)" stroke="#ffffff" stroke-width="1"/>
    
    <!-- Last move indicator -->
    <rect x="132" y="226" width="18" height="18" fill="#ff4444" stroke="#ff0000" stroke-width="1"/>
  </g>
  
  <!-- Right side - Branding (mathematically aligned) -->
  <g transform="translate(660, 160)">
    <!-- Main title -->
    <text x="0" y="0" font-family="'Segoe UI', system-ui, -apple-system, sans-serif" font-size="96" font-weight="700" fill="#ffffff" filter="url(#glow)" letter-spacing="-2.8px">
      Stonify
    </text>
    <text x="311" y="0" font-family="'Segoe UI', system-ui, -apple-system, sans-serif" font-size="96" font-weight="700" fill="#ff4444" filter="url(#glow)" letter-spacing="-2.8px">
      5
    </text>
    
    <!-- Subtitle (perfectly aligned) -->
    <text x="0" y="80" font-family="'Segoe UI', system-ui, -apple-system, sans-serif" font-size="36" fill="#a0a0a0" letter-spacing="3.4px">
      ONLINE GOMOKU
    </text>
    
    <!-- Description (center-aligned with title) -->
    <text x="0" y="160" font-family="'Segoe UI', system-ui, -apple-system, sans-serif" font-size="28" fill="#cccccc" letter-spacing="0.2px">
      Real-time Gomoku battle
    </text>
    <text x="0" y="200" font-family="'Segoe UI', system-ui, -apple-system, sans-serif" font-size="28" fill="#cccccc" letter-spacing="0.2px">
      with players worldwide
    </text>
    
    <!-- Features (mathematically spaced) -->
    <g transform="translate(0, 270)">
      <text x="0" y="0" font-family="'Segoe UI', system-ui, -apple-system, sans-serif" font-size="22" fill="#00ff88" letter-spacing="0.3px">
        Zero-latency gameplay
      </text>
      <text x="0" y="45" font-family="'Segoe UI', system-ui, -apple-system, sans-serif" font-size="22" fill="#00ff88" letter-spacing="0.3px">
        International standard rules
      </text>
      <text x="0" y="90" font-family="'Segoe UI', system-ui, -apple-system, sans-serif" font-size="22" fill="#00ff88" letter-spacing="0.3px">
        Multi-language support
      </text>
    </g>
  </g>
  
  <!-- Decorative elements (mathematically positioned) -->
  <circle cx="1080" cy="150" r="75" fill="url(#blackStone)" opacity="0.12"/>
  <circle cx="1130" cy="500" r="95" fill="url(#whiteStone)" opacity="0.1"/>
</svg>
